<?xml version="1.0" standalone="no"?><!DOCTYPE svg PUBLIC "-//W3C//DTD SVG 1.1//EN" "http://www.w3.org/Graphics/SVG/1.1/DTD/svg11.dtd"><svg t="1599105292125" class="icon" viewBox="0 0 1293 1024" version="1.1" xmlns="http://www.w3.org/2000/svg" p-id="1184" xmlns:xlink="http://www.w3.org/1999/xlink" width="252.5390625" height="200"><defs><style type="text/css"></style></defs><path d="M743.316211 54.649263l487.154526 797.157053A113.178947 113.178947 0 0 1 1133.891368 1024H159.528421A113.178947 113.178947 0 0 1 63.056842 851.806316l487.208421-797.103158A113.178947 113.178947 0 0 1 737.28 45.810526l6.036211 8.838737z m395.15621 853.369263l-487.154526-797.103158-0.754527-1.077894-1.024-0.754527a5.389474 5.389474 0 0 0-7.383579 1.778527l-487.154526 797.103158a5.389474 5.389474 0 0 0 4.581053 8.245894H1133.945263a5.389474 5.389474 0 0 0 4.581053-8.192z" fill="#E01313" p-id="1185"></path><path d="M646.736842 323.368421a75.290947 75.290947 0 0 1 75.075369 80.626526l-17.354106 242.903579a57.882947 57.882947 0 0 1-115.442526 0l-17.354105-242.903579A75.290947 75.290947 0 0 1 646.736842 323.368421z" fill="#E01313" p-id="1186"></path><path d="M646.736842 808.421053m-53.894737 0a53.894737 53.894737 0 1 0 107.789474 0 53.894737 53.894737 0 1 0-107.789474 0Z" fill="#E01313" p-id="1187"></path></svg>